<svg width="311" height="340" viewBox="0 0 311 340" fill="none" xmlns="http://www.w3.org/2000/svg">
<rect y="0.247559" width="311" height="339.365" rx="10" fill="#E3E3E3"/>
<rect x="40.4819" y="75.4647" width="36.2279" height="36.2279" rx="11.5393" transform="rotate(-43.0841 40.4819 75.4647)" fill="#3273FF"/>
<rect x="37.5902" y="93.7847" width="13.4178" height="13.4178" rx="4.41991" transform="rotate(-43.0841 37.5902 93.7847)" fill="#3273FF" stroke="#E3E3E3" stroke-width="0.805065"/>
<rect x="37.3944" y="93.968" width="3.48862" height="13.4178" rx="1.74431" transform="rotate(-43.0841 37.3944 93.968)" fill="#3273FF" stroke="#E3E3E3" stroke-width="0.805065"/>
<rect x="0.0190322" y="-0.568949" width="13.4178" height="13.4178" rx="4.41991" transform="matrix(-0.730352 0.683071 0.683071 0.730352 85.8039 49.4716)" fill="#3273FF" stroke="#E3E3E3" stroke-width="0.805065"/>
<rect x="0.0190322" y="-0.568949" width="3.48862" height="13.4178" rx="1.74431" transform="matrix(-0.730352 0.683071 0.683071 0.730352 86.0002 49.2881)" fill="#3273FF" stroke="#E3E3E3" stroke-width="0.805065"/>
<rect x="48.6099" y="47.8383" width="13.4178" height="13.4178" rx="4.41991" transform="rotate(46.9159 48.6099 47.8383)" fill="#3273FF" stroke="#E3E3E3" stroke-width="0.805065"/>
<rect x="48.4272" y="47.6423" width="3.48862" height="13.4178" rx="1.74431" transform="rotate(46.9159 48.4272 47.6423)" fill="#3273FF" stroke="#E3E3E3" stroke-width="0.805065"/>
<rect x="0.568949" y="0.0190322" width="13.4178" height="13.4178" rx="4.41991" transform="matrix(-0.683071 -0.730352 -0.730352 0.683071 93.7288 96.0516)" fill="#3273FF" stroke="#E3E3E3" stroke-width="0.805065"/>
<rect x="0.568949" y="0.0190322" width="3.48862" height="13.4178" rx="1.74431" transform="matrix(-0.683071 -0.730352 -0.730352 0.683071 93.9119 96.2476)" fill="#3273FF" stroke="#E3E3E3" stroke-width="0.805065"/>
<rect x="26.4819" y="200.465" width="36.2279" height="36.2279" rx="11.5393" transform="rotate(-43.0841 26.4819 200.465)" fill="#3273FF"/>
<rect x="23.5902" y="218.785" width="13.4178" height="13.4178" rx="4.41991" transform="rotate(-43.0841 23.5902 218.785)" fill="#3273FF" stroke="#E3E3E3" stroke-width="0.805065"/>
<rect x="23.3944" y="218.968" width="3.48862" height="13.4178" rx="1.74431" transform="rotate(-43.0841 23.3944 218.968)" fill="#3273FF" stroke="#E3E3E3" stroke-width="0.805065"/>
<rect x="0.0190322" y="-0.568949" width="13.4178" height="13.4178" rx="4.41991" transform="matrix(-0.730352 0.683071 0.683071 0.730352 71.8039 174.472)" fill="#3273FF" stroke="#E3E3E3" stroke-width="0.805065"/>
<rect x="0.0190322" y="-0.568949" width="3.48862" height="13.4178" rx="1.74431" transform="matrix(-0.730352 0.683071 0.683071 0.730352 72.0002 174.288)" fill="#3273FF" stroke="#E3E3E3" stroke-width="0.805065"/>
<rect x="34.6099" y="172.838" width="13.4178" height="13.4178" rx="4.41991" transform="rotate(46.9159 34.6099 172.838)" fill="#3273FF" stroke="#E3E3E3" stroke-width="0.805065"/>
<rect x="34.4272" y="172.642" width="3.48862" height="13.4178" rx="1.74431" transform="rotate(46.9159 34.4272 172.642)" fill="#3273FF" stroke="#E3E3E3" stroke-width="0.805065"/>
<rect x="0.568949" y="0.0190322" width="13.4178" height="13.4178" rx="4.41991" transform="matrix(-0.683071 -0.730352 -0.730352 0.683071 79.7288 221.052)" fill="#3273FF" stroke="#E3E3E3" stroke-width="0.805065"/>
<rect x="0.568949" y="0.0190322" width="3.48862" height="13.4178" rx="1.74431" transform="matrix(-0.683071 -0.730352 -0.730352 0.683071 79.9119 221.248)" fill="#3273FF" stroke="#E3E3E3" stroke-width="0.805065"/>
<rect x="204.482" y="74.4647" width="36.2279" height="36.2279" rx="11.5393" transform="rotate(-43.0841 204.482 74.4647)" fill="#3273FF"/>
<rect x="201.59" y="92.7847" width="13.4178" height="13.4178" rx="4.41991" transform="rotate(-43.0841 201.59 92.7847)" fill="#3273FF" stroke="#E3E3E3" stroke-width="0.805065"/>
<rect x="201.394" y="92.968" width="3.48862" height="13.4178" rx="1.74431" transform="rotate(-43.0841 201.394 92.968)" fill="#3273FF" stroke="#E3E3E3" stroke-width="0.805065"/>
<rect x="0.0190322" y="-0.568949" width="13.4178" height="13.4178" rx="4.41991" transform="matrix(-0.730352 0.683071 0.683071 0.730352 249.804 48.4715)" fill="#3273FF" stroke="#E3E3E3" stroke-width="0.805065"/>
<rect x="0.0190322" y="-0.568949" width="3.48862" height="13.4178" rx="1.74431" transform="matrix(-0.730352 0.683071 0.683071 0.730352 250.001 48.2881)" fill="#3273FF" stroke="#E3E3E3" stroke-width="0.805065"/>
<rect x="212.61" y="46.8383" width="13.4178" height="13.4178" rx="4.41991" transform="rotate(46.9159 212.61 46.8383)" fill="#3273FF" stroke="#E3E3E3" stroke-width="0.805065"/>
<rect x="212.427" y="46.6424" width="3.48862" height="13.4178" rx="1.74431" transform="rotate(46.9159 212.427 46.6424)" fill="#3273FF" stroke="#E3E3E3" stroke-width="0.805065"/>
<rect x="0.568949" y="0.0190322" width="13.4178" height="13.4178" rx="4.41991" transform="matrix(-0.683071 -0.730352 -0.730352 0.683071 257.729 95.0517)" fill="#3273FF" stroke="#E3E3E3" stroke-width="0.805065"/>
<rect x="0.568949" y="0.0190322" width="3.48862" height="13.4178" rx="1.74431" transform="matrix(-0.683071 -0.730352 -0.730352 0.683071 257.912 95.2477)" fill="#3273FF" stroke="#E3E3E3" stroke-width="0.805065"/>
<rect x="230.482" y="200.465" width="36.2279" height="36.2279" rx="11.5393" transform="rotate(-43.0841 230.482 200.465)" fill="#3273FF"/>
<rect x="227.59" y="218.785" width="13.4178" height="13.4178" rx="4.41991" transform="rotate(-43.0841 227.59 218.785)" fill="#3273FF" stroke="#E3E3E3" stroke-width="0.805065"/>
<rect x="227.394" y="218.968" width="3.48862" height="13.4178" rx="1.74431" transform="rotate(-43.0841 227.394 218.968)" fill="#3273FF" stroke="#E3E3E3" stroke-width="0.805065"/>
<rect x="0.0190322" y="-0.568949" width="13.4178" height="13.4178" rx="4.41991" transform="matrix(-0.730352 0.683071 0.683071 0.730352 275.804 174.472)" fill="#3273FF" stroke="#E3E3E3" stroke-width="0.805065"/>
<rect x="0.0190322" y="-0.568949" width="3.48862" height="13.4178" rx="1.74431" transform="matrix(-0.730352 0.683071 0.683071 0.730352 276.001 174.288)" fill="#3273FF" stroke="#E3E3E3" stroke-width="0.805065"/>
<rect x="238.61" y="172.838" width="13.4178" height="13.4178" rx="4.41991" transform="rotate(46.9159 238.61 172.838)" fill="#3273FF" stroke="#E3E3E3" stroke-width="0.805065"/>
<rect x="238.427" y="172.642" width="3.48862" height="13.4178" rx="1.74431" transform="rotate(46.9159 238.427 172.642)" fill="#3273FF" stroke="#E3E3E3" stroke-width="0.805065"/>
<rect x="0.568949" y="0.0190322" width="13.4178" height="13.4178" rx="4.41991" transform="matrix(-0.683071 -0.730352 -0.730352 0.683071 283.729 221.052)" fill="#3273FF" stroke="#E3E3E3" stroke-width="0.805065"/>
<rect x="0.568949" y="0.0190322" width="3.48862" height="13.4178" rx="1.74431" transform="matrix(-0.683071 -0.730352 -0.730352 0.683071 283.912 221.248)" fill="#3273FF" stroke="#E3E3E3" stroke-width="0.805065"/>
<rect x="116.329" y="178.309" width="79.6041" height="154.32" rx="11.5426" fill="#C8C8C8"/>
<rect x="6" y="271.879" width="300.261" height="60.7505" rx="11.5426" fill="#C8C8C8"/>
<path d="M57.0861 83.2476V71.1024H60.452L65.3101 79.0314H63.5404L68.2596 71.1024H71.6256L71.6603 83.2476H67.93L67.8953 76.7239H68.4852L65.258 82.1545H63.4536L60.0877 76.7239H60.8164V83.2476H57.0861ZM74.8198 83.2476V72.5251L76.5722 74.1907H72.7378V71.1024H78.9145V83.2476H74.8198Z" fill="white"/>
<path d="M219.434 81.2476V69.1024H222.8L227.658 77.0314H225.888L230.608 69.1024H233.974L234.008 81.2476H230.278L230.243 74.7239H230.833L227.606 80.1545H225.802L222.436 74.7239H223.164V81.2476H219.434ZM235.485 81.2476V78.7318L239.874 74.6718C240.152 74.4058 240.354 74.1744 240.482 73.9778C240.621 73.7812 240.713 73.6077 240.759 73.4573C240.806 73.2954 240.829 73.145 240.829 73.0062C240.829 72.7054 240.73 72.4741 240.534 72.3122C240.337 72.1387 240.042 72.0519 239.649 72.0519C239.29 72.0519 238.949 72.1502 238.625 72.3469C238.301 72.5319 238.047 72.8095 237.862 73.1797L234.773 71.6355C235.213 70.8027 235.872 70.126 236.751 69.6055C237.63 69.085 238.724 68.8248 240.031 68.8248C240.991 68.8248 241.841 68.9809 242.581 69.2932C243.321 69.6055 243.9 70.0451 244.316 70.6118C244.733 71.1786 244.941 71.8495 244.941 72.6245C244.941 73.0177 244.889 73.411 244.785 73.8043C244.692 74.1976 244.495 74.614 244.195 75.0535C243.894 75.4815 243.449 75.9615 242.859 76.4936L239.562 79.4952L238.92 78.0725H245.218V81.2476H235.485Z" fill="white"/>
<path d="M41.3832 207.248V195.102H44.7492L49.6073 203.031H47.8375L52.5568 195.102H55.9228L55.9575 207.248H52.2272L52.1925 200.724H52.7824L49.5552 206.154H47.7508L44.3848 200.724H45.1135V207.248H41.3832ZM61.6328 207.525C60.8 207.525 59.9556 207.433 59.0996 207.248C58.2437 207.062 57.4918 206.791 56.8441 206.432L58.2321 203.413C58.7526 203.714 59.2963 203.939 59.863 204.09C60.4414 204.229 60.985 204.298 61.494 204.298C61.9566 204.298 62.3326 204.223 62.6217 204.072C62.9225 203.911 63.0728 203.673 63.0728 203.361C63.0728 203.095 62.963 202.893 62.7432 202.754C62.5234 202.603 62.1533 202.528 61.6328 202.528H60.0192V200.012L63.1596 196.82L63.5239 198.191H57.4687V195.102H66.5255V197.618L63.3851 200.811L61.4246 199.7H62.5003C64.0271 199.7 65.1896 200.041 65.9877 200.724C66.7858 201.406 67.1849 202.285 67.1849 203.361C67.1849 204.055 66.9882 204.72 66.5949 205.356C66.2132 205.993 65.6118 206.513 64.7905 206.918C63.9808 207.323 62.9283 207.525 61.6328 207.525Z" fill="white"/>
<path d="M244.036 207.248V195.102H247.402L252.26 203.031H250.49L255.21 195.102H258.576L258.61 207.248H254.88L254.845 200.724H255.435L252.208 206.154H250.404L247.038 200.724H247.766V207.248H244.036ZM260 205.166V202.563L265.153 195.102H269.352L264.39 202.563L262.481 201.99H271.885V205.166H260ZM266.298 207.248V205.166L266.42 201.99V200.134H270.271V207.248H266.298Z" fill="white"/>
</svg>
