<svg width="311" height="340" viewBox="0 0 311 340" fill="none" xmlns="http://www.w3.org/2000/svg">
<rect y="0.247559" width="311" height="339.365" rx="10" fill="#E3E3E3"/>
<rect x="40" y="178.309" width="79.6041" height="154.32" rx="11.5426" fill="#C8C8C8"/>
<rect x="6" y="271.879" width="300.261" height="60.7505" rx="11.5426" fill="#C8C8C8"/>
<rect x="34.4819" y="51.2172" width="36.2279" height="36.2279" rx="11.5393" transform="rotate(-43.0841 34.4819 51.2172)" fill="#3273FF"/>
<rect x="31.5902" y="69.5372" width="13.4178" height="13.4178" rx="4.41991" transform="rotate(-43.0841 31.5902 69.5372)" fill="#3273FF" stroke="#E3E3E3" stroke-width="0.805065"/>
<rect x="31.3944" y="69.7205" width="3.48862" height="13.4178" rx="1.74431" transform="rotate(-43.0841 31.3944 69.7205)" fill="#3273FF" stroke="#E3E3E3" stroke-width="0.805065"/>
<rect x="0.0190322" y="-0.568949" width="13.4178" height="13.4178" rx="4.41991" transform="matrix(-0.730352 0.683071 0.683071 0.730352 79.8039 25.224)" fill="#3273FF" stroke="#E3E3E3" stroke-width="0.805065"/>
<rect x="0.0190322" y="-0.568949" width="3.48862" height="13.4178" rx="1.74431" transform="matrix(-0.730352 0.683071 0.683071 0.730352 80.0002 25.0406)" fill="#3273FF" stroke="#E3E3E3" stroke-width="0.805065"/>
<rect x="42.6099" y="23.5908" width="13.4178" height="13.4178" rx="4.41991" transform="rotate(46.9159 42.6099 23.5908)" fill="#3273FF" stroke="#E3E3E3" stroke-width="0.805065"/>
<rect x="42.4272" y="23.3948" width="3.48862" height="13.4178" rx="1.74431" transform="rotate(46.9159 42.4272 23.3948)" fill="#3273FF" stroke="#E3E3E3" stroke-width="0.805065"/>
<rect x="0.568949" y="0.0190322" width="13.4178" height="13.4178" rx="4.41991" transform="matrix(-0.683071 -0.730352 -0.730352 0.683071 87.7288 71.8041)" fill="#3273FF" stroke="#E3E3E3" stroke-width="0.805065"/>
<rect x="0.568949" y="0.0190322" width="3.48862" height="13.4178" rx="1.74431" transform="matrix(-0.683071 -0.730352 -0.730352 0.683071 87.9119 72.0001)" fill="#3273FF" stroke="#E3E3E3" stroke-width="0.805065"/>
<path d="M49.0361 58.0001V45.8549H52.402L57.2601 53.7839H55.4904L60.2096 45.8549H63.5756L63.6103 58.0001H59.88L59.8453 51.4764H60.4352L57.208 56.907H55.4036L52.0377 51.4764H52.7664V58.0001H49.0361ZM65.0001 55.918V53.3155L70.1531 45.8549H74.3519L69.3897 53.3155L67.4812 52.7429H76.885V55.918H65.0001ZM71.2982 58.0001V55.918L71.4197 52.7429V50.8865H75.2714V58.0001H71.2982Z" fill="white"/>
<rect x="207.482" y="48.2172" width="36.2279" height="36.2279" rx="11.5393" transform="rotate(-43.0841 207.482 48.2172)" fill="#3273FF"/>
<rect x="204.59" y="66.5372" width="13.4178" height="13.4178" rx="4.41991" transform="rotate(-43.0841 204.59 66.5372)" fill="#3273FF" stroke="#E3E3E3" stroke-width="0.805065"/>
<rect x="204.394" y="66.7205" width="3.48862" height="13.4178" rx="1.74431" transform="rotate(-43.0841 204.394 66.7205)" fill="#3273FF" stroke="#E3E3E3" stroke-width="0.805065"/>
<rect x="0.0190322" y="-0.568949" width="13.4178" height="13.4178" rx="4.41991" transform="matrix(-0.730352 0.683071 0.683071 0.730352 252.804 22.224)" fill="#3273FF" stroke="#E3E3E3" stroke-width="0.805065"/>
<rect x="0.0190322" y="-0.568949" width="3.48862" height="13.4178" rx="1.74431" transform="matrix(-0.730352 0.683071 0.683071 0.730352 253 22.0406)" fill="#3273FF" stroke="#E3E3E3" stroke-width="0.805065"/>
<rect x="215.61" y="20.5908" width="13.4178" height="13.4178" rx="4.41991" transform="rotate(46.9159 215.61 20.5908)" fill="#3273FF" stroke="#E3E3E3" stroke-width="0.805065"/>
<rect x="215.427" y="20.3948" width="3.48862" height="13.4178" rx="1.74431" transform="rotate(46.9159 215.427 20.3948)" fill="#3273FF" stroke="#E3E3E3" stroke-width="0.805065"/>
<rect x="0.568949" y="0.0190322" width="13.4178" height="13.4178" rx="4.41991" transform="matrix(-0.683071 -0.730352 -0.730352 0.683071 260.729 68.8041)" fill="#3273FF" stroke="#E3E3E3" stroke-width="0.805065"/>
<rect x="0.568949" y="0.0190322" width="3.48862" height="13.4178" rx="1.74431" transform="matrix(-0.683071 -0.730352 -0.730352 0.683071 260.912 69.0001)" fill="#3273FF" stroke="#E3E3E3" stroke-width="0.805065"/>
<path d="M222.341 55.0001V42.8549H225.707L230.565 50.7839H228.795L233.514 42.8549H236.88L236.915 55.0001H233.185L233.15 48.4764H233.74L230.513 53.907H228.708L225.342 48.4764H226.071V55.0001H222.341ZM242.781 55.2777C241.948 55.2777 241.104 55.1851 240.248 55.0001C239.392 54.815 238.64 54.5432 237.993 54.1846L239.381 51.1657C239.901 51.4664 240.445 51.6919 241.012 51.8423C241.578 51.9811 242.116 52.0505 242.625 52.0505C243.088 52.0505 243.469 51.9695 243.77 51.8076C244.071 51.6457 244.221 51.4086 244.221 51.0963C244.221 50.9227 244.169 50.7724 244.065 50.6451C243.961 50.5063 243.776 50.4022 243.51 50.3328C243.255 50.2634 242.88 50.2287 242.382 50.2287H238.86L239.467 42.8549H247.535V45.9432H240.907L242.972 44.1908L242.608 48.8928L240.543 47.1404H243.371C244.574 47.1404 245.534 47.3139 246.251 47.6609C246.98 48.0079 247.506 48.4764 247.83 49.0663C248.166 49.6446 248.333 50.2924 248.333 51.0095C248.333 51.7266 248.137 52.4149 247.743 53.0742C247.362 53.7219 246.76 54.254 245.939 54.6704C245.129 55.0752 244.077 55.2777 242.781 55.2777Z" fill="white"/>
<rect x="133.482" y="128.217" width="36.2279" height="36.2279" rx="11.5393" transform="rotate(-43.0841 133.482 128.217)" fill="#3273FF"/>
<rect x="130.59" y="146.537" width="13.4178" height="13.4178" rx="4.41991" transform="rotate(-43.0841 130.59 146.537)" fill="#3273FF" stroke="#E3E3E3" stroke-width="0.805065"/>
<rect x="130.394" y="146.72" width="3.48862" height="13.4178" rx="1.74431" transform="rotate(-43.0841 130.394 146.72)" fill="#3273FF" stroke="#E3E3E3" stroke-width="0.805065"/>
<rect x="0.0190322" y="-0.568949" width="13.4178" height="13.4178" rx="4.41991" transform="matrix(-0.730352 0.683071 0.683071 0.730352 178.804 102.224)" fill="#3273FF" stroke="#E3E3E3" stroke-width="0.805065"/>
<rect x="0.0190322" y="-0.568949" width="3.48862" height="13.4178" rx="1.74431" transform="matrix(-0.730352 0.683071 0.683071 0.730352 179 102.041)" fill="#3273FF" stroke="#E3E3E3" stroke-width="0.805065"/>
<rect x="141.61" y="100.591" width="13.4178" height="13.4178" rx="4.41991" transform="rotate(46.9159 141.61 100.591)" fill="#3273FF" stroke="#E3E3E3" stroke-width="0.805065"/>
<rect x="141.427" y="100.395" width="3.48862" height="13.4178" rx="1.74431" transform="rotate(46.9159 141.427 100.395)" fill="#3273FF" stroke="#E3E3E3" stroke-width="0.805065"/>
<rect x="0.568949" y="0.0190322" width="13.4178" height="13.4178" rx="4.41991" transform="matrix(-0.683071 -0.730352 -0.730352 0.683071 186.729 148.804)" fill="#3273FF" stroke="#E3E3E3" stroke-width="0.805065"/>
<rect x="0.568949" y="0.0190322" width="3.48862" height="13.4178" rx="1.74431" transform="matrix(-0.683071 -0.730352 -0.730352 0.683071 186.912 149)" fill="#3273FF" stroke="#E3E3E3" stroke-width="0.805065"/>
<path d="M148.477 135V122.855H151.843L156.701 130.784H154.931L159.65 122.855H163.016L163.051 135H159.321L159.286 128.476H159.876L156.649 133.907H154.844L151.478 128.476H152.207V135H148.477ZM170.374 135.278C169.218 135.278 168.2 135.058 167.321 134.618C166.453 134.167 165.771 133.502 165.273 132.623C164.788 131.732 164.545 130.628 164.545 129.309C164.545 127.886 164.828 126.678 165.395 125.683C165.962 124.677 166.748 123.907 167.754 123.375C168.772 122.843 169.946 122.577 171.277 122.577C171.994 122.577 172.682 122.664 173.341 122.838C174.012 122.999 174.579 123.231 175.042 123.532L173.567 126.394C173.208 126.14 172.844 125.972 172.474 125.891C172.115 125.799 171.745 125.752 171.363 125.752C170.542 125.752 169.883 126.001 169.385 126.498C168.9 126.984 168.657 127.696 168.657 128.633C168.657 128.806 168.657 128.98 168.657 129.153C168.657 129.315 168.657 129.483 168.657 129.656L167.72 128.98C167.951 128.586 168.223 128.257 168.535 127.991C168.848 127.713 169.218 127.505 169.646 127.366C170.074 127.216 170.571 127.14 171.138 127.14C171.878 127.14 172.561 127.302 173.185 127.626C173.821 127.939 174.33 128.384 174.712 128.962C175.105 129.541 175.302 130.229 175.302 131.027C175.302 131.894 175.082 132.646 174.643 133.282C174.203 133.919 173.607 134.41 172.855 134.757C172.115 135.104 171.288 135.278 170.374 135.278ZM170.097 132.45C170.34 132.45 170.554 132.403 170.739 132.311C170.935 132.207 171.086 132.062 171.19 131.877C171.294 131.692 171.346 131.472 171.346 131.218C171.346 130.836 171.23 130.535 170.999 130.315C170.768 130.084 170.467 129.968 170.097 129.968C169.854 129.968 169.64 130.021 169.455 130.125C169.27 130.229 169.119 130.373 169.004 130.558C168.9 130.743 168.848 130.963 168.848 131.218C168.848 131.472 168.9 131.692 169.004 131.877C169.119 132.062 169.27 132.207 169.455 132.311C169.64 132.403 169.854 132.45 170.097 132.45Z" fill="white"/>
<rect x="230.482" y="223.217" width="36.2279" height="36.2279" rx="11.5393" transform="rotate(-43.0841 230.482 223.217)" fill="#3273FF"/>
<rect x="227.59" y="241.537" width="13.4178" height="13.4178" rx="4.41991" transform="rotate(-43.0841 227.59 241.537)" fill="#3273FF" stroke="#E3E3E3" stroke-width="0.805065"/>
<rect x="227.394" y="241.72" width="3.48862" height="13.4178" rx="1.74431" transform="rotate(-43.0841 227.394 241.72)" fill="#3273FF" stroke="#E3E3E3" stroke-width="0.805065"/>
<rect x="0.0190322" y="-0.568949" width="13.4178" height="13.4178" rx="4.41991" transform="matrix(-0.730352 0.683071 0.683071 0.730352 275.804 197.224)" fill="#3273FF" stroke="#E3E3E3" stroke-width="0.805065"/>
<rect x="0.0190322" y="-0.568949" width="3.48862" height="13.4178" rx="1.74431" transform="matrix(-0.730352 0.683071 0.683071 0.730352 276 197.041)" fill="#3273FF" stroke="#E3E3E3" stroke-width="0.805065"/>
<rect x="238.61" y="195.591" width="13.4178" height="13.4178" rx="4.41991" transform="rotate(46.9159 238.61 195.591)" fill="#3273FF" stroke="#E3E3E3" stroke-width="0.805065"/>
<rect x="238.427" y="195.395" width="3.48862" height="13.4178" rx="1.74431" transform="rotate(46.9159 238.427 195.395)" fill="#3273FF" stroke="#E3E3E3" stroke-width="0.805065"/>
<rect x="0.568949" y="0.0190322" width="13.4178" height="13.4178" rx="4.41991" transform="matrix(-0.683071 -0.730352 -0.730352 0.683071 283.729 243.804)" fill="#3273FF" stroke="#E3E3E3" stroke-width="0.805065"/>
<rect x="0.568949" y="0.0190322" width="3.48862" height="13.4178" rx="1.74431" transform="matrix(-0.683071 -0.730352 -0.730352 0.683071 283.912 244)" fill="#3273FF" stroke="#E3E3E3" stroke-width="0.805065"/>
<path d="M245.121 230V217.855H248.487L253.345 225.784H251.575L256.294 217.855H259.66L259.695 230H255.965L255.93 223.476H256.52L253.293 228.907H251.488L248.122 223.476H248.851V230H245.121ZM262.924 230L267.504 219.312L268.597 221.03H262.837L264.433 219.173V222.8H261.05V217.855H271.443V220.371L267.4 230H262.924Z" fill="white"/>
</svg>
